<svg width="632" height="20" viewBox="0 0 632 20" fill="none" xmlns="http://www.w3.org/2000/svg">
<path d="M7.00016 14.1698L2.83016 9.99984L1.41016 11.4098L7.00016 16.9998L19.0002 4.99984L17.5902 3.58984L7.00016 14.1698Z" fill="#242529"/>
<path d="M75.9724 12.5185L73.0091 9.55514L72 10.5571L75.9724 14.5296L84.5 6.00199L83.498 5L75.9724 12.5185Z" fill="#242529"/>
<path d="M149.41 5.41L148 4L142 10L148 16L149.41 14.59L144.83 10L149.41 5.41Z" fill="#0A0A0A"/>
<path d="M212 4L210.59 5.41L215.17 10L210.59 14.59L212 16L218 10L212 4Z" fill="#0A0A0A"/>
<path d="M286.59 6.58984L282 11.1698L277.41 6.58984L276 7.99984L282 13.9998L288 7.99984L286.59 6.58984Z" fill="#0A0A0A"/>
<path d="M350 6.66602L344 12.666L345.41 14.076L350 9.49602L354.59 14.076L356 12.666L350 6.66602Z" fill="#0A0A0A"/>
<path d="M423.6 3.45455H422.9V2H421.5V3.45455H414.5V2H413.1V3.45455H412.4C411.63 3.45455 411 4.10909 411 4.90909V16.5455C411 17.3455 411.63 18 412.4 18H423.6C424.37 18 425 17.3455 425 16.5455V4.90909C425 4.10909 424.37 3.45455 423.6 3.45455ZM423.6 16.5455H412.4V8.54545H423.6V16.5455ZM423.6 7.09091H412.4V4.90909H423.6V7.09091Z" fill="#9BA0AC"/>
<g clip-path="url(#clip0_16_8560)">
<path d="M482.29 18.128C489.837 18.128 493.965 11.8752 493.965 6.45279C493.965 6.27519 493.965 6.09839 493.953 5.92239C494.756 5.34152 495.449 4.6223 496 3.79839C495.251 4.13024 494.457 4.34786 493.643 4.44399C494.5 3.93118 495.141 3.12461 495.447 2.17439C494.642 2.65236 493.761 2.9892 492.842 3.17039C492.223 2.51254 491.405 2.07693 490.514 1.93096C489.622 1.785 488.708 1.93682 487.912 2.36294C487.116 2.78905 486.482 3.4657 486.109 4.28818C485.736 5.11066 485.645 6.03311 485.849 6.91279C484.218 6.83101 482.622 6.40706 481.165 5.66847C479.708 4.92987 478.422 3.89315 477.392 2.62559C476.867 3.52892 476.707 4.59828 476.943 5.61595C477.179 6.63361 477.794 7.52306 478.662 8.10319C478.009 8.08384 477.371 7.90768 476.8 7.58959C476.8 7.60639 476.8 7.62399 476.8 7.64159C476.8 8.58897 477.128 9.50709 477.728 10.2402C478.328 10.9734 479.163 11.4764 480.092 11.664C479.488 11.8287 478.854 11.8528 478.239 11.7344C478.501 12.5497 479.012 13.2627 479.699 13.7737C480.387 14.2846 481.217 14.5679 482.073 14.584C480.62 15.7259 478.825 16.3459 476.977 16.344C476.65 16.3434 476.324 16.3236 476 16.2848C477.877 17.489 480.06 18.1278 482.29 18.1248" fill="#1DA1F2"/>
</g>
<g clip-path="url(#clip1_16_8560)">
<path d="M559.834 0H548.167C545.866 0 544 1.86583 544 4.16667V15.8333C544 18.1342 545.866 20 548.167 20H559.834C562.135 20 564 18.1342 564 15.8333V4.16667C564 1.86583 562.135 0 559.834 0ZM550.667 15.8333H548.167V6.66667H550.667V15.8333ZM549.417 5.61C548.612 5.61 547.958 4.95167 547.958 4.14C547.958 3.32833 548.612 2.67 549.417 2.67C550.222 2.67 550.875 3.32833 550.875 4.14C550.875 4.95167 550.223 5.61 549.417 5.61ZM560.667 15.8333H558.167V11.1633C558.167 8.35667 554.833 8.56917 554.833 11.1633V15.8333H552.333V6.66667H554.833V8.1375C555.997 5.9825 560.667 5.82333 560.667 10.2008V15.8333Z" fill="#2867B2"/>
</g>
<g clip-path="url(#clip2_16_8560)">
<ellipse cx="622" cy="9.99743" rx="10.0001" ry="9.99743" fill="#1977F3"/>
<path d="M625.897 12.8905L626.34 9.99886H623.566V8.1231C623.566 7.33281 623.953 6.56058 625.197 6.56058H626.458V4.09961C626.458 4.09961 625.313 3.9043 624.219 3.9043C621.935 3.9043 620.441 5.28834 620.441 7.79571V9.99887H617.9V12.8905H620.441V19.8786C620.95 19.9585 621.471 19.9992 622.004 19.9992C622.535 19.9992 623.057 19.9573 623.566 19.8786V12.8905L625.897 12.8905Z" fill="white"/>
</g>
<defs>
<clipPath id="clip0_16_8560">
<rect width="20.0003" height="20" fill="white" transform="translate(476)"/>
</clipPath>
<clipPath id="clip1_16_8560">
<rect width="20.0003" height="20" fill="white" transform="translate(544)"/>
</clipPath>
<clipPath id="clip2_16_8560">
<rect width="20.0003" height="20" fill="white" transform="translate(612)"/>
</clipPath>
</defs>
</svg>
